<?xml version="1.0" encoding="utf-8"?>
<!-- Generator: Adobe Illustrator 25.2.0, SVG Export Plug-In . SVG Version: 6.00 Build 0)  -->
<svg version="1.1" id="Layer_1" xmlns="http://www.w3.org/2000/svg" xmlns:xlink="http://www.w3.org/1999/xlink" x="0px" y="0px"
	 viewBox="0 0 140 140" style="enable-background:new 0 0 140 140;" xml:space="preserve">
<style type="text/css">
	.st0{fill:#A5A5A5;}
	.st1{fill:#707070;}
</style>
<g>
	<g>
		<ellipse class="st0" cx="41" cy="62.6" rx="9.4" ry="9.7"/>
		<ellipse class="st0" cx="69.3" cy="23.7" rx="14.3" ry="14.6"/>
		<path class="st0" d="M107.6,101.7c0,16-12.9,29.1-28.6,29.1s-28.6-13.1-28.6-29.1S63.3,72.6,79,72.6
			C94.7,72.3,107.6,85.4,107.6,101.7z"/>
		<path class="st1" d="M33.9,65.1c0-5.4,4.3-9.7,9.4-9.7c2,0,3.7,0.6,5.1,1.7c-1.7-2.6-4.6-4.3-7.7-4.3c-5.1,0-9.4,4.3-9.4,9.7
			c0,3.4,1.7,6.3,4.3,8C34.4,69.1,33.9,67.4,33.9,65.1z"/>
		<path class="st1" d="M57.6,26.3c0-8,6.3-14.6,14.3-14.6c3.1,0,6.3,1.1,8.6,2.9c-2.6-3.1-6.6-5.4-11.1-5.4c-8,0-14.3,6.6-14.3,14.6
			c0,4.9,2.3,8.9,5.7,11.7C59,32.8,57.6,29.7,57.6,26.3z"/>
		<path class="st1" d="M53,104.3c0-16,12.9-29.1,28.6-29.1c7.1,0,13.4,2.6,18.6,7.1c-5.1-6-12.9-9.7-21.1-9.7
			c-15.7,0-28.6,13.1-28.6,29.1c0,8.9,4,16.9,10,22.3C55.9,118.6,53,111.7,53,104.3z"/>
	</g>
</g>
</svg>
