<?xml version="1.0" encoding="utf-8"?>
<!-- Generator: Adobe Illustrator 25.2.0, SVG Export Plug-In . SVG Version: 6.00 Build 0)  -->
<svg version="1.1" id="Layer_1" xmlns="http://www.w3.org/2000/svg" xmlns:xlink="http://www.w3.org/1999/xlink" x="0px" y="0px"
	 viewBox="0 0 140 140" style="enable-background:new 0 0 140 140;" xml:space="preserve">
<style type="text/css">
	.st0{fill:#A5A5A5;}
	.st1{fill:#707070;}
</style>
<g>
	<g>
		<ellipse class="st0" cx="49.1" cy="70.7" rx="3.3" ry="3.4"/>
		<ellipse class="st0" cx="59" cy="57.1" rx="5" ry="5.1"/>
		<path class="st0" d="M72.4,84.4c0,5.6-4.5,10.2-10,10.2s-10-4.6-10-10.2s4.5-10.2,10-10.2C67.9,74.1,72.4,78.7,72.4,84.4z"/>
		<path class="st1" d="M46.6,71.6c0-1.9,1.5-3.4,3.3-3.4c0.7,0,1.3,0.2,1.8,0.6c-0.6-0.9-1.6-1.5-2.7-1.5c-1.8,0-3.3,1.5-3.3,3.4
			c0,1.2,0.6,2.2,1.5,2.8C46.8,73,46.6,72.4,46.6,71.6z"/>
		<path class="st1" d="M54.9,58c0-2.8,2.2-5.1,5-5.1c1.1,0,2.2,0.4,3,1C62,52.8,60.6,52,59,52c-2.8,0-5,2.3-5,5.1
			c0,1.7,0.8,3.1,2,4.1C55.4,60.3,54.9,59.2,54.9,58z"/>
		<path class="st1" d="M53.3,85.3c0-5.6,4.5-10.2,10-10.2c2.5,0,4.7,0.9,6.5,2.5c-1.8-2.1-4.5-3.4-7.4-3.4c-5.5,0-10,4.6-10,10.2
			c0,3.1,1.4,5.9,3.5,7.8C54.3,90.3,53.3,87.9,53.3,85.3z"/>
	</g>
</g>
</svg>
